# xmcd
#
# Track frame offsets:
#	150
#	13472
#	31514
#	44464
#	56928
#	77771
#	88472
#	101972
#	118889
#	133614
#	146668
#	161630
#	174699
#	188203
#	202883
#	218948
#	229508
#	240726
#	255016
#	269778
#	287103
#	300842
#	315455
#	327989
#
# Disc length: 4554 seconds
#
# Revision: 1
# Processed by: cddbd v1.5.2PL0 Copyright (c) Steve Scherf et al.
# Submitted via: audiograbber 1.83.01
#
DISCID=6311c818
DTITLE=Various Artist - BKS-027
DYEAR=2013
DGENRE=Country
TTITLE0=Merle Haggard - Okie From Muskogee
TTITLE1=Kenny Rogers - Lucille
TTITLE2=Johnny Cash - I Walk The Line
TTITLE3=Patsy Cline - Sweet Dreams
TTITLE4=Kenny Rogers - Coward Of The County
TTITLE5=Jim Reeves - Billy Bayou
TTITLE6=Hank Williams - You're Cheatin' Heart
TTITLE7=Glen Campbell - Wichita Lineman
TTITLE8=Loretta Lynn - Coal Miner's Daughter
TTITLE9=Patsy Cline - Crazy
TTITLE10=Kenny Rogers - Ruby Don't Take Your Love To Town
TTITLE11=Jim Reeves - Welcome To My World
TTITLE12=Hank Williams - Cold Cold Heart
TTITLE13=Billy Swan - I Can Help
TTITLE14=Jeanie C.Riley - Harper Valley P.T.A
TTITLE15=Linda Ronstadt - When Will I Be Loved
TTITLE16=Patsy Cline - Blue Moon Of Kentucky
TTITLE17=Glen Campbell - By The Time I Get To Phoenix
TTITLE18=Dolly Parton - Here You Come Again
TTITLE19=Charlie Daniels Band,The - The Devil Went Down To Georgia
TTITLE20=Dolly Parton - 9 To 5
TTITLE21=Glen Campbell - Galveston
TTITLE22=Linda Ronstadt - That'll Be The Day
TTITLE23=Dolly Parton - Jolene
EXTD=
EXTT0=
EXTT1=
EXTT2=
EXTT3=
EXTT4=
EXTT5=
EXTT6=
EXTT7=
EXTT8=
EXTT9=
EXTT10=
EXTT11=
EXTT12=
EXTT13=
EXTT14=
EXTT15=
EXTT16=
EXTT17=
EXTT18=
EXTT19=
EXTT20=
EXTT21=
EXTT22=
EXTT23=
PLAYORDER=
